<svg width="40" height="40" viewBox="0 0 40 40" fill="none" xmlns="http://www.w3.org/2000/svg">
<path d="M22 5C31.3888 5 39 12.6112 39 22C39 31.3888 31.3888 39 22 39C12.6112 39 5 31.3888 5 22C5 12.6112 12.6112 5 22 5Z" fill="#1C229D"/>
<path d="M22 5C31.3888 5 39 12.6112 39 22C39 31.3888 31.3888 39 22 39C12.6112 39 5 31.3888 5 22C5 12.6112 12.6112 5 22 5Z" stroke="#1C229D" stroke-width="2"/>
<path d="M18 1C27.3888 1 35 8.61116 35 18C35 27.3888 27.3888 35 18 35C8.61116 35 1 27.3888 1 18C1 8.61116 8.61116 1 18 1Z" fill="white"/>
<path d="M18 1C27.3888 1 35 8.61116 35 18C35 27.3888 27.3888 35 18 35C8.61116 35 1 27.3888 1 18C1 8.61116 8.61116 1 18 1Z" stroke="#1C229D" stroke-width="2"/>
<path d="M14.7002 14.7002L21.2999 21.2998M14.7002 21.2998L21.2999 14.7002" stroke="#2E35B9" stroke-width="2" stroke-linecap="round" stroke-linejoin="round"/>
</svg>
