<svg width="94" height="227" viewBox="0 0 94 227" fill="none" xmlns="http://www.w3.org/2000/svg">
<g opacity="0.6" clip-path="url(#clip0_884_1531)">
<g style="mix-blend-mode:multiply" opacity="0.58">
<path d="M120.166 9.27227L26.6582 40.2529C15.3526 43.9986 9.22388 56.2007 12.9694 67.5069L58.2968 204.331C62.0424 215.637 74.2438 221.766 85.5495 218.02L179.057 187.04C190.363 183.294 196.492 171.092 192.746 159.786L147.419 22.9618C143.673 11.6555 131.472 5.52651 120.166 9.27227Z" fill="#5263BD"/>
<path d="M120.166 9.27227L26.6582 40.2529C15.3526 43.9986 9.22388 56.2007 12.9694 67.5069L58.2968 204.331C62.0424 215.637 74.2438 221.766 85.5495 218.02L179.057 187.04C190.363 183.294 196.492 171.092 192.746 159.786L147.419 22.9618C143.673 11.6555 131.472 5.52651 120.166 9.27227Z" stroke="#5263BD" stroke-linecap="round" stroke-linejoin="round"/>
</g>
<path d="M112.412 4.21368L18.9043 35.1943C7.59866 38.94 1.46997 51.1421 5.21554 62.4483L50.5429 199.272C54.2885 210.578 66.4899 216.707 77.7956 212.962L171.303 181.981C182.609 178.235 188.738 166.033 184.992 154.727L139.665 17.9032C135.919 6.59691 123.718 0.467925 112.412 4.21368Z" fill="#5263BD" stroke="#5263BD" stroke-width="1.06" stroke-linecap="round" stroke-linejoin="round"/>
<path d="M111.919 1.95047L22.6036 31.5419C11.2979 35.2877 5.16919 47.4897 8.91476 58.796L51.671 187.859C55.4165 199.165 67.618 205.294 78.9237 201.548L168.239 171.957C179.544 168.211 185.673 156.009 181.927 144.703L139.171 15.64C135.426 4.33371 123.224 -1.79528 111.919 1.95047Z" fill="#68D4AB" stroke="#5263BD" stroke-linecap="round" stroke-linejoin="round"/>
<path d="M111.68 26.6442L40.2374 50.3141C34.1714 52.3239 30.8831 58.8708 32.8927 64.9372L38.3564 81.4297C40.3661 87.496 46.9127 90.7845 52.9788 88.7747L124.421 65.1048C130.487 63.0951 133.775 56.5481 131.766 50.4818L126.302 33.9893C124.292 27.9229 117.746 24.6344 111.68 26.6442Z" fill="#5FAEDE" stroke="#5263BD" stroke-linecap="round" stroke-linejoin="round"/>
<path d="M41.5012 56.3329L114.857 32.03C119.083 30.6269 123.535 31.8048 126.531 34.6802L126.306 34.0047C124.297 27.9419 117.749 24.6507 111.669 26.6601L40.2367 50.3221C34.1743 52.3315 30.8832 58.8792 32.8925 64.9593L33.568 67.0206C33.7066 62.2917 36.7378 57.9265 41.4838 56.3502L41.5012 56.3329Z" fill="#5263BD" stroke="#5263BD" stroke-linecap="round" stroke-linejoin="round"/>
<path d="M60.6545 100.059L50.0163 103.583C47.4918 104.42 46.1233 107.144 46.9597 109.669L50.1845 119.403C51.0209 121.928 53.7454 123.296 56.2698 122.46L66.9081 118.935C69.4325 118.099 70.801 115.374 69.9647 112.85L66.7398 103.115C65.9035 100.591 63.179 99.2222 60.6545 100.059Z" fill="#5263BD" stroke="#5263BD" stroke-width="1.02" stroke-linecap="round" stroke-linejoin="round"/>
<path d="M83.7971 92.836L73.1589 96.3606C70.6344 97.197 69.2659 99.9216 70.1023 102.446L73.3271 112.181C74.1634 114.705 76.8879 116.074 79.4124 115.237L90.0506 111.713C92.5751 110.876 93.9436 108.152 93.1072 105.627L89.8824 95.8927C89.0461 93.3681 86.3216 91.9996 83.7971 92.836Z" fill="#5263BD" stroke="#5263BD" stroke-width="1.02" stroke-linecap="round" stroke-linejoin="round"/>
<path d="M109.729 85.0195L99.0905 88.5442C96.566 89.3806 95.1975 92.1052 96.0339 94.6298L99.2587 104.364C100.095 106.889 102.82 108.257 105.344 107.421L115.982 103.896C118.507 103.06 119.875 100.335 119.039 97.8107L115.814 88.0763C114.978 85.5517 112.253 84.1831 109.729 85.0195Z" fill="#5263BD" stroke="#5263BD" stroke-width="1.02" stroke-linecap="round" stroke-linejoin="round"/>
<path d="M68.8557 131.43L58.2175 134.954C55.693 135.791 54.3245 138.515 55.1608 141.04L58.3857 150.774C59.222 153.299 61.9465 154.668 64.471 153.831L75.1092 150.306C77.6337 149.47 79.0022 146.745 78.1658 144.221L74.941 134.486C74.1047 131.962 71.3802 130.593 68.8557 131.43Z" fill="#5263BD" stroke="#5263BD" stroke-width="1.02" stroke-linecap="round" stroke-linejoin="round"/>
<path d="M93.924 123.484L83.2858 127.009C80.7613 127.845 79.3928 130.57 80.2292 133.095L83.454 142.829C84.2904 145.354 87.0149 146.722 89.5394 145.886L100.178 142.361C102.702 141.525 104.071 138.8 103.234 136.276L100.009 126.541C99.173 124.017 96.4485 122.648 93.924 123.484Z" fill="#5263BD" stroke="#5263BD" stroke-width="1.02" stroke-linecap="round" stroke-linejoin="round"/>
<path d="M78.219 159.672L67.5807 163.196C65.0563 164.033 63.6878 166.758 64.5241 169.282L67.749 179.017C68.5853 181.541 71.3098 182.91 73.8343 182.073L84.4725 178.549C86.997 177.712 88.3655 174.988 87.5291 172.463L84.3043 162.729C83.4679 160.204 80.7434 158.835 78.219 159.672Z" fill="#5263BD" stroke="#5263BD" stroke-width="1.02" stroke-linecap="round" stroke-linejoin="round"/>
<path d="M103.303 151.719L92.6647 155.243C90.1403 156.08 88.7718 158.804 89.6081 161.329L92.8329 171.063C93.6693 173.588 96.3938 174.957 98.9183 174.12L109.556 170.596C112.081 169.759 113.449 167.035 112.613 164.51L109.388 154.776C108.552 152.251 105.827 150.882 103.303 151.719Z" fill="#5263BD" stroke="#5263BD" stroke-width="1.02" stroke-linecap="round" stroke-linejoin="round"/>
<path d="M60.1369 99.5164L50.403 102.741C47.8785 103.578 46.51 106.302 47.3464 108.827L50.5712 118.561C51.4076 121.086 54.1321 122.455 56.6566 121.618L66.3904 118.393C68.9149 117.557 70.2834 114.832 69.4471 112.308L66.2222 102.573C65.3859 100.049 62.6614 98.68 60.1369 99.5164Z" fill="#F4FA8B" stroke="#5263BD" stroke-linecap="round" stroke-linejoin="round"/>
<path d="M85.0334 91.2586L75.2995 94.4836C72.775 95.32 71.4065 98.0446 72.2429 100.569L75.4677 110.304C76.3041 112.828 79.0286 114.197 81.553 113.36L91.2869 110.135C93.8114 109.299 95.1799 106.574 94.3435 104.05L91.1187 94.3154C90.2824 91.7908 87.5579 90.4222 85.0334 91.2586Z" fill="#F4FA8B" stroke="#5263BD" stroke-linecap="round" stroke-linejoin="round"/>
<path d="M70.297 130.159L60.5632 133.384C58.0387 134.22 56.6702 136.945 57.5065 139.47L60.7314 149.204C61.5677 151.729 64.2922 153.097 66.8167 152.261L76.5506 149.036C79.0751 148.199 80.4436 145.475 79.6072 142.95L76.3824 133.216C75.546 130.691 72.8215 129.323 70.297 130.159Z" fill="#F4FA8B" stroke="#5263BD" stroke-linecap="round" stroke-linejoin="round"/>
<path d="M95.1779 121.901L85.444 125.126C82.9195 125.963 81.5511 128.687 82.3874 131.212L85.6122 140.946C86.4486 143.471 89.1731 144.839 91.6976 144.003L101.431 140.778C103.956 139.942 105.324 137.217 104.488 134.692L101.263 124.958C100.427 122.433 97.7024 121.065 95.1779 121.901Z" fill="#F4FA8B" stroke="#5263BD" stroke-linecap="round" stroke-linejoin="round"/>
<path d="M79.6428 158.401L69.9089 161.626C67.3844 162.463 66.0159 165.187 66.8523 167.712L70.0771 177.446C70.9134 179.971 73.6379 181.339 76.1624 180.503L85.8963 177.278C88.4208 176.442 89.7893 173.717 88.9529 171.192L85.7281 161.458C84.8917 158.933 82.1672 157.565 79.6428 158.401Z" fill="#F4FA8B" stroke="#5263BD" stroke-linecap="round" stroke-linejoin="round"/>
<path d="M104.557 150.155L94.8229 153.38C92.2984 154.216 90.93 156.941 91.7663 159.466L94.9911 169.2C95.8275 171.725 98.552 173.093 101.076 172.257L110.81 169.032C113.335 168.195 114.703 165.471 113.867 162.946L110.642 153.212C109.806 150.687 107.081 149.319 104.557 150.155Z" fill="#F4FA8B" stroke="#5263BD" stroke-linecap="round" stroke-linejoin="round"/>
<path d="M67.846 53.9249C66.3737 61.9277 63.1173 68.6487 58.4233 75.2484C56.6392 77.7601 61.0041 80.8088 62.9614 78.2798C68.0019 71.8186 70.9985 63.8851 72.2629 55.8303C72.6786 53.1974 68.383 50.8935 67.8287 53.9249H67.846Z" fill="white"/>
<path d="M92.0616 42.9763C90.9357 47.6533 89.6193 52.2956 87.9564 56.8166C86.3456 61.2338 83.7647 65.3738 82.5002 69.8775C81.8767 72.0947 84.7866 74.26 86.4148 72.2853C92.3907 65.0446 94.6944 53.4388 95.9935 44.3967C96.2879 42.3354 92.6332 40.5858 92.0616 42.9936V42.9763Z" fill="white"/>
<path d="M92.771 100.452C92.1474 98.8584 91.5239 97.2475 90.9003 95.6538C89.8957 93.0728 86.2236 94.2334 87.1589 96.9703C87.6959 98.5466 88.2328 100.123 88.7698 101.699C89.2548 103.12 89.965 105.406 91.8876 105.285C94.4858 105.129 93.308 101.855 92.771 100.452Z" fill="white"/>
<path d="M65.4569 108.125C64.9026 107.034 64.5562 105.925 64.4176 104.712C64.1578 102.564 60.2605 101.785 60.3471 104.383C60.3991 106.029 60.6416 107.588 61.2478 109.13C61.8887 110.741 62.9107 112.629 64.7121 113.062C65.7167 113.304 66.7213 112.629 66.8079 111.589C66.9292 110.169 66.0631 109.32 65.4742 108.142L65.4569 108.125Z" fill="white"/>
<path d="M77.8234 143.03C77.0266 140.761 75.5716 138.769 74.7748 136.465C74.4111 135.374 73.7355 134.213 72.3845 134.282C71.172 134.352 70.1847 135.859 70.9122 136.985C71.224 137.47 71.2933 138.37 71.4838 138.925C71.7263 139.652 71.9861 140.362 72.2806 141.055C72.9214 142.58 73.7009 144 74.8614 145.195C76.455 146.823 78.4642 144.831 77.8234 143.013V143.03Z" fill="white"/>
<path d="M83.4887 164.179C82.9345 163.209 81.9125 162.378 80.7173 162.793C79.6607 163.157 79.245 164.543 79.7474 165.513C80.4056 166.76 80.9945 168.025 81.5661 169.324C82.1204 170.606 82.5534 171.957 83.3848 173.1C84.5973 174.798 87.0569 174.018 86.8837 171.905C86.6585 169.272 84.8052 166.431 83.5061 164.179H83.4887Z" fill="white"/>
</g>
<defs>
<clipPath id="clip0_884_1531">
<rect width="199" height="227" fill="white"/>
</clipPath>
</defs>
</svg>
