<svg width="21" height="20" viewBox="0 0 21 20" fill="none" xmlns="http://www.w3.org/2000/svg">
<g clip-path="url(#clip0_884_1524)">
<path d="M19.0827 9.58464V12.168C19.0827 14.0348 19.0827 14.9682 18.7193 15.6813C18.3998 16.3085 17.8898 16.8184 17.2627 17.138C16.5496 17.5013 15.6162 17.5013 13.7493 17.5013H7.74935C5.88251 17.5013 4.94909 17.5013 4.23605 17.138C3.60884 16.8184 3.09891 16.3085 2.77932 15.6813C2.41602 14.9682 2.41602 14.0348 2.41602 12.168V7.83464C2.41602 5.96779 2.41602 5.03438 2.77932 4.32134C3.09891 3.69413 3.60884 3.18419 4.23605 2.86461C4.94909 2.5013 5.88251 2.5013 7.74935 2.5013H11.166M16.5827 6.66797V1.66797M14.0827 4.16797H19.0827M14.0827 10.0013C14.0827 11.8422 12.5903 13.3346 10.7493 13.3346C8.9084 13.3346 7.41602 11.8422 7.41602 10.0013C7.41602 8.16035 8.9084 6.66797 10.7493 6.66797C12.5903 6.66797 14.0827 8.16035 14.0827 10.0013Z" stroke="#2E35B9" stroke-width="2" stroke-linecap="round" stroke-linejoin="round"/>
</g>
<defs>
<clipPath id="clip0_884_1524">
<rect width="20" height="20" fill="white" transform="translate(0.75)"/>
</clipPath>
</defs>
</svg>
