<svg width="30" height="30" viewBox="0 0 30 30" fill="none" xmlns="http://www.w3.org/2000/svg">
<path d="M16 3C23.1797 3 29 8.8203 29 16C29 23.1797 23.1797 29 16 29C8.8203 29 3 23.1797 3 16C3 8.8203 8.8203 3 16 3Z" fill="#C5CBE8"/>
<path d="M16 3C23.1797 3 29 8.8203 29 16C29 23.1797 23.1797 29 16 29C8.8203 29 3 23.1797 3 16C3 8.8203 8.8203 3 16 3Z" stroke="#C5CBE8" stroke-width="2"/>
<path d="M14 1C21.1797 1 27 6.8203 27 14C27 21.1797 21.1797 27 14 27C6.8203 27 1 21.1797 1 14C1 6.8203 6.8203 1 14 1Z" fill="white"/>
<path d="M14 1C21.1797 1 27 6.8203 27 14C27 21.1797 21.1797 27 14 27C6.8203 27 1 21.1797 1 14C1 6.8203 6.8203 1 14 1Z" stroke="#C5CBE8" stroke-width="2"/>
<path d="M10.7002 10.7002L17.2999 17.2998M10.7002 17.2998L17.2999 10.7002" stroke="#2E35B9" stroke-width="2" stroke-linecap="round" stroke-linejoin="round"/>
</svg>
