<svg width="128" height="73" viewBox="0 0 128 73" fill="none" xmlns="http://www.w3.org/2000/svg">
<g opacity="0.6" clip-path="url(#clip0_985_1513)">
<g style="mix-blend-mode:multiply" opacity="0.58">
<path d="M121.299 35.7871C128.354 8.83501 108.756 -19.5579 77.525 -27.6303C46.2944 -35.7026 15.258 -20.3976 8.20334 6.55445C1.14864 33.5065 20.7471 61.8994 51.9777 69.9718C83.2083 78.0441 114.245 62.7391 121.299 35.7871Z" fill="#5263BD"/>
<path d="M121.299 35.7871C128.354 8.83501 108.756 -19.5579 77.525 -27.6303C46.2944 -35.7026 15.258 -20.3976 8.20334 6.55445C1.14864 33.5065 20.7471 61.8994 51.9777 69.9718C83.2083 78.0441 114.245 62.7391 121.299 35.7871Z" stroke="#5263BD" stroke-linecap="round" stroke-linejoin="round"/>
</g>
<path d="M117.889 31.7949C124.944 4.84282 105.345 -23.5501 74.1148 -31.6225C42.8842 -39.6948 11.8479 -24.3898 4.79318 2.56226C-2.26151 29.5143 17.3369 57.9072 48.5675 65.9796C79.7981 74.052 110.834 58.7469 117.889 31.7949Z" fill="#5162AA"/>
<path d="M114.922 28.207C121.977 1.25493 102.379 -27.138 71.148 -35.2103C39.9174 -43.2827 8.88108 -27.9777 1.82638 -1.02563C-5.22831 25.9264 14.3701 54.3193 45.6007 62.3917C76.8313 70.4641 107.868 55.159 114.922 28.207Z" fill="#EFEC8D" stroke="#5162AA" stroke-linecap="round" stroke-linejoin="round"/>
<path d="M114.928 21.9628C121.983 -4.98921 102.384 -33.3821 71.1539 -41.4545C39.9233 -49.5268 8.88693 -34.2218 1.83224 -7.26977C-5.22245 19.6823 14.376 48.0752 45.6066 56.1476C76.8372 64.2199 107.874 48.9149 114.928 21.9628Z" fill="#EFEC8D" stroke="#5162AA" stroke-linecap="round" stroke-linejoin="round"/>
<path d="M107.755 20.1085C113.914 -3.42394 96.8016 -28.2146 69.5325 -35.2631C42.2635 -42.3115 15.1642 -28.9485 9.00454 -5.41598C2.84492 18.1165 19.9575 42.9072 47.2266 49.9556C74.4956 57.004 101.595 43.641 107.755 20.1085Z" fill="#EFEC8D" stroke="#5162AA" stroke-linecap="round" stroke-linejoin="round"/>
<path d="M102.791 7.34602C101.739 7.34602 100.781 6.64384 100.506 5.58275C97.4912 -6.17498 90.0717 -16.068 79.6216 -22.2707C69.1714 -28.4733 56.9391 -30.2522 45.1778 -27.2718C43.9137 -26.9519 42.6339 -27.7087 42.312 -28.9649C41.9901 -30.221 42.7517 -31.4927 44.0158 -31.8126C57.0019 -35.0973 70.5062 -33.139 82.0398 -26.2965C93.5734 -19.4541 101.754 -8.54681 105.076 4.42024C105.397 5.67638 104.636 6.94812 103.372 7.268C103.176 7.31482 102.979 7.33822 102.791 7.33822V7.34602Z" fill="white"/>
<path d="M11.8086 41.4164C11.5887 41.4164 11.416 41.2448 11.416 41.0263V34.7924C11.416 34.574 11.5887 34.4023 11.8086 34.4023C12.0284 34.4023 12.2011 34.574 12.2011 34.7924V41.0263C12.2011 41.2448 12.0284 41.4164 11.8086 41.4164Z" fill="#5162AA"/>
<path d="M7.44335 35.1215C7.22351 35.1215 7.05078 34.9499 7.05078 34.7314V28.4975C7.05078 28.2791 7.22351 28.1074 7.44335 28.1074C7.66319 28.1074 7.83591 28.2791 7.83591 28.4975V34.7314C7.83591 34.9499 7.66319 35.1215 7.44335 35.1215Z" fill="#5162AA"/>
<path d="M4.73436 30.2211C4.51453 30.2211 4.3418 30.0495 4.3418 29.831V23.5971C4.3418 23.3787 4.51453 23.207 4.73436 23.207C4.9542 23.207 5.12693 23.3787 5.12693 23.5971V29.831C5.12693 30.0495 4.9542 30.2211 4.73436 30.2211Z" fill="#5162AA"/>
<path d="M16.8105 46.9262C16.5907 46.9262 16.418 46.7545 16.418 46.5361V40.3022C16.418 40.0838 16.5907 39.9121 16.8105 39.9121C17.0304 39.9121 17.2031 40.0838 17.2031 40.3022V46.5361C17.2031 46.7545 17.0304 46.9262 16.8105 46.9262Z" fill="#5162AA"/>
<path d="M21.8183 51.3734C21.5985 51.3734 21.4258 51.2018 21.4258 50.9833V44.7495C21.4258 44.531 21.5985 44.3594 21.8183 44.3594C22.0382 44.3594 22.2109 44.531 22.2109 44.7495V50.9833C22.2109 51.2018 22.0382 51.3734 21.8183 51.3734Z" fill="#5162AA"/>
<path d="M26.8281 54.8207C26.6083 54.8207 26.4355 54.6491 26.4355 54.4306V48.1967C26.4355 47.9783 26.6083 47.8066 26.8281 47.8066C27.048 47.8066 27.2207 47.9783 27.2207 48.1967V54.4306C27.2207 54.6491 27.048 54.8207 26.8281 54.8207Z" fill="#5162AA"/>
<path d="M31.8301 57.9418C31.6102 57.9418 31.4375 57.7702 31.4375 57.5517V51.3178C31.4375 51.0994 31.6102 50.9277 31.8301 50.9277C32.0499 50.9277 32.2226 51.0994 32.2226 51.3178V57.5517C32.2226 57.7702 32.0499 57.9418 31.8301 57.9418Z" fill="#5162AA"/>
<path d="M36.8379 59.9789C36.618 59.9789 36.4453 59.8073 36.4453 59.5888V53.3549C36.4453 53.1365 36.618 52.9648 36.8379 52.9648C37.0577 52.9648 37.2304 53.1365 37.2304 53.3549V59.5888C37.2304 59.8073 37.0577 59.9789 36.8379 59.9789Z" fill="#5162AA"/>
<path d="M41.8476 61.9359C41.6278 61.9359 41.4551 61.7643 41.4551 61.5458V55.312C41.4551 55.0935 41.6278 54.9219 41.8476 54.9219C42.0675 54.9219 42.2402 55.0935 42.2402 55.312V61.5458C42.2402 61.7643 42.0675 61.9359 41.8476 61.9359Z" fill="#5162AA"/>
<path d="M46.8496 63.0922C46.6298 63.0922 46.457 62.9205 46.457 62.7021V56.4682C46.457 56.2498 46.6298 56.0781 46.8496 56.0781C47.0694 56.0781 47.2422 56.2498 47.2422 56.4682V62.7021C47.2422 62.9205 47.0694 63.0922 46.8496 63.0922Z" fill="#5162AA"/>
<path d="M51.8574 64.1762C51.6376 64.1762 51.4648 64.0045 51.4648 63.7861V57.5522C51.4648 57.3338 51.6376 57.1621 51.8574 57.1621C52.0772 57.1621 52.25 57.3338 52.25 57.5522V63.7861C52.25 64.0045 52.0772 64.1762 51.8574 64.1762Z" fill="#5162AA"/>
<path d="M56.8672 65.057C56.6473 65.057 56.4746 64.8854 56.4746 64.6669V58.4331C56.4746 58.2146 56.6473 58.043 56.8672 58.043C57.087 58.043 57.2597 58.2146 57.2597 58.4331V64.6669C57.2597 64.8854 57.087 65.057 56.8672 65.057Z" fill="#5162AA"/>
<path d="M61.8691 65.4399C61.6493 65.4399 61.4766 65.2682 61.4766 65.0498V58.8159C61.4766 58.5974 61.6493 58.4258 61.8691 58.4258C62.089 58.4258 62.2617 58.5974 62.2617 58.8159V65.0498C62.2617 65.2682 62.089 65.4399 61.8691 65.4399Z" fill="#5162AA"/>
<path d="M66.8769 65.057C66.6571 65.057 66.4844 64.8854 66.4844 64.6669V58.4331C66.4844 58.2146 66.6571 58.043 66.8769 58.043C67.0968 58.043 67.2695 58.2146 67.2695 58.4331V64.6669C67.2695 64.8854 67.0968 65.057 66.8769 65.057Z" fill="#5162AA"/>
<path d="M71.8867 64.559C71.6669 64.559 71.4941 64.3874 71.4941 64.1689V57.935C71.4941 57.7166 71.6669 57.5449 71.8867 57.5449C72.1065 57.5449 72.2793 57.7166 72.2793 57.935V64.1689C72.2793 64.3874 72.1065 64.559 71.8867 64.559Z" fill="#5162AA"/>
<path d="M76.8887 63.4418C76.6688 63.4418 76.4961 63.2702 76.4961 63.0517V56.8178C76.4961 56.5994 76.6688 56.4277 76.8887 56.4277C77.1085 56.4277 77.2812 56.5994 77.2812 56.8178V63.0517C77.2812 63.2702 77.1085 63.4418 76.8887 63.4418Z" fill="#5162AA"/>
<path d="M81.8965 61.9359C81.6766 61.9359 81.5039 61.7643 81.5039 61.5458V55.312C81.5039 55.0935 81.6766 54.9219 81.8965 54.9219C82.1163 54.9219 82.289 55.0935 82.289 55.312V61.5458C82.289 61.7643 82.1163 61.9359 81.8965 61.9359Z" fill="#5162AA"/>
<path d="M86.9062 60.3285C86.6864 60.3285 86.5137 60.1569 86.5137 59.9384V53.7046C86.5137 53.4861 86.6864 53.3145 86.9062 53.3145C87.1261 53.3145 87.2988 53.4861 87.2988 53.7046V59.9384C87.2988 60.1569 87.1261 60.3285 86.9062 60.3285Z" fill="#5162AA"/>
<path d="M91.9082 57.4418C91.6884 57.4418 91.5156 57.2702 91.5156 57.0517V50.8178C91.5156 50.5994 91.6884 50.4277 91.9082 50.4277C92.128 50.4277 92.3008 50.5994 92.3008 50.8178V57.0517C92.3008 57.2702 92.128 57.4418 91.9082 57.4418Z" fill="#5162AA"/>
<path d="M96.916 54.3305C96.6962 54.3305 96.5234 54.1588 96.5234 53.9404V47.7065C96.5234 47.4881 96.6962 47.3164 96.916 47.3164C97.1358 47.3164 97.3086 47.4881 97.3086 47.7065V53.9404C97.3086 54.1588 97.1358 54.3305 96.916 54.3305Z" fill="#5162AA"/>
<path d="M101.926 50.3813C101.706 50.3813 101.533 50.2096 101.533 49.9912V43.7573C101.533 43.5388 101.706 43.3672 101.926 43.3672C102.146 43.3672 102.318 43.5388 102.318 43.7573V49.9912C102.318 50.2096 102.146 50.3813 101.926 50.3813Z" fill="#5162AA"/>
<path d="M106.928 45.0844C106.708 45.0844 106.535 44.9127 106.535 44.6943V38.4604C106.535 38.242 106.708 38.0703 106.928 38.0703C107.148 38.0703 107.32 38.242 107.32 38.4604V44.6943C107.32 44.9127 107.148 45.0844 106.928 45.0844Z" fill="#5162AA"/>
<path d="M111.936 36.9379C111.716 36.9379 111.543 36.7663 111.543 36.5478V30.3139C111.543 30.0955 111.716 29.9238 111.936 29.9238C112.155 29.9238 112.328 30.0955 112.328 30.3139V36.5478C112.328 36.7663 112.155 36.9379 111.936 36.9379Z" fill="#5162AA"/>
<path d="M63.8286 -9.44433L59.6413 -15.4864L41.0345 -2.59131C35.5213 1.22945 39.1441 10.5224 41.6447 14.6913C42.0583 14.5872 43.2083 14.0457 44.4997 12.7127C41.0815 7.78038 44.5413 3.80065 46.6985 2.42733L48.9204 5.63331C52.6071 10.9531 53.3031 18.4761 52.473 23.7972C53.0868 28.6593 55.1564 31.8998 58.6368 29.7472C65.4655 25.5238 56.5274 9.67047 54.0492 6.09455C52.0666 3.23382 50.2917 1.09321 49.652 0.380488L53.8853 -2.55331L65.3363 13.9699C67.9 17.6691 71.6321 20.7411 75.8654 17.8073C79.252 15.4603 78.9306 9.96371 78.3466 7.50882C77.8147 7.51237 76.3582 7.49958 74.7874 7.41999C76.0248 11.3083 72.3562 14.2158 69.9634 10.7632L58.5124 -5.76002L63.8286 -9.44433Z" fill="#BF8900"/>
</g>
<defs>
<clipPath id="clip0_985_1513">
<rect width="128" height="117" fill="white" transform="translate(0 -44)"/>
</clipPath>
</defs>
</svg>
