<svg width="16" height="16" viewBox="0 0 16 16" fill="none" xmlns="http://www.w3.org/2000/svg">
<path d="M9.49967 1.33301H5.66263C5.54298 1.33301 5.48315 1.33301 5.43034 1.35123C5.38363 1.36733 5.34109 1.39363 5.30579 1.4282C5.26587 1.46729 5.23912 1.52081 5.18561 1.62783L2.38561 7.22781C2.25782 7.48341 2.19393 7.61121 2.20927 7.71507C2.22267 7.80574 2.27285 7.88694 2.34798 7.93948C2.43403 7.99967 2.57689 7.99967 2.86263 7.99967H6.99967L4.99969 14.6663L13.1284 6.23655C13.4027 5.95214 13.5398 5.80994 13.5478 5.68826C13.5547 5.58265 13.5111 5.48 13.4303 5.41169C13.3371 5.33301 13.1396 5.33301 12.7445 5.33301H7.99967L9.49967 1.33301Z" fill="#F4FA8B" stroke="#F4FA8B" stroke-width="2" stroke-linecap="round" stroke-linejoin="round"/>
</svg>
