<svg width="21" height="20" viewBox="0 0 21 20" fill="none" xmlns="http://www.w3.org/2000/svg">
<path d="M10.0195 12.4993C8.63878 12.4993 7.51953 11.3801 7.51953 9.99935V4.16602C7.51953 2.78531 8.63878 1.66602 10.0195 1.66602C11.4003 1.66602 12.5195 2.78531 12.5195 4.16602V9.99935C12.5195 11.3801 11.4003 12.4993 10.0195 12.4993Z" fill="white" stroke="white" stroke-width="2" stroke-linecap="round" stroke-linejoin="round"/>
<path d="M15.8522 8.33268V9.99935C15.8522 13.221 13.2405 15.8327 10.0189 15.8327M10.0189 15.8327C6.79722 15.8327 4.18555 13.221 4.18555 9.99935V8.33268M10.0189 15.8327V18.3327M6.68555 18.3327H13.3522M10.0189 12.4993C8.63813 12.4993 7.51888 11.3801 7.51888 9.99935V4.16602C7.51888 2.78531 8.63813 1.66602 10.0189 1.66602C11.3996 1.66602 12.5189 2.78531 12.5189 4.16602V9.99935C12.5189 11.3801 11.3996 12.4993 10.0189 12.4993Z" stroke="white" stroke-width="2" stroke-linecap="round" stroke-linejoin="round"/>
</svg>
