<svg width="29" height="28" viewBox="0 0 29 28" fill="none" xmlns="http://www.w3.org/2000/svg">
<circle cx="14.5" cy="14" r="13" stroke="url(#paint0_linear_1119_1701)" stroke-width="2"/>
<g filter="url(#filter0_i_1119_1701)">
<rect x="2.5" y="2" width="24" height="24" rx="12" fill="url(#paint1_linear_1119_1701)"/>
<path d="M18.8357 11.0078V9H12.2273C10.2692 9 9.59324 11.6498 9.5 12.9746C9.61655 13.0156 9.98252 13.073 10.514 12.9746C10.514 11.3356 12.0058 10.9805 12.7518 11.0078V12.0732C12.7518 13.841 11.6678 15.6381 10.5839 16.7034C9.92271 17.8904 9.88046 18.9398 11.0734 18.9981C13.4141 19.1123 13.9056 14.1629 13.9056 12.9746C13.9056 12.024 13.8357 11.2673 13.8007 11.0078H15.3042V16.4985C15.3042 17.7278 15.6888 18.9981 17.1923 18.9981C18.3951 18.9981 19.2319 17.7141 19.5 17.0722C19.3718 16.9902 19.0245 16.7608 18.6608 16.4985C18.3112 17.5639 16.9476 17.6459 16.9476 16.4985V11.0078H18.8357Z" fill="#BF8900"/>
</g>
<defs>
<filter id="filter0_i_1119_1701" x="2.5" y="2" width="24" height="24" filterUnits="userSpaceOnUse" color-interpolation-filters="sRGB">
<feFlood flood-opacity="0" result="BackgroundImageFix"/>
<feBlend mode="normal" in="SourceGraphic" in2="BackgroundImageFix" result="shape"/>
<feColorMatrix in="SourceAlpha" type="matrix" values="0 0 0 0 0 0 0 0 0 0 0 0 0 0 0 0 0 0 127 0" result="hardAlpha"/>
<feOffset/>
<feGaussianBlur stdDeviation="2"/>
<feComposite in2="hardAlpha" operator="arithmetic" k2="-1" k3="1"/>
<feColorMatrix type="matrix" values="0 0 0 0 0.74902 0 0 0 0 0.537255 0 0 0 0 0 0 0 0 1 0"/>
<feBlend mode="normal" in2="shape" result="effect1_innerShadow_1119_1701"/>
</filter>
<linearGradient id="paint0_linear_1119_1701" x1="14.5" y1="2" x2="14.5" y2="26" gradientUnits="userSpaceOnUse">
<stop stop-color="#F5E197"/>
<stop offset="1" stop-color="#EABE1A"/>
</linearGradient>
<linearGradient id="paint1_linear_1119_1701" x1="14.5" y1="2" x2="14.5" y2="26" gradientUnits="userSpaceOnUse">
<stop stop-color="#FFF2AA"/>
<stop offset="1" stop-color="#FFDF55"/>
</linearGradient>
</defs>
</svg>
