<svg width="17" height="16" viewBox="0 0 17 16" fill="none" xmlns="http://www.w3.org/2000/svg">
<g clip-path="url(#clip0_955_5356)">
<path d="M6.63427 13.7346C6.85277 13.7057 7.07349 13.7649 7.24754 13.899L8.04974 14.5145C8.31487 14.7183 8.68374 14.7183 8.94814 14.5145L9.78067 13.8753C9.93621 13.7561 10.1325 13.7035 10.3265 13.7294L11.3679 13.8664C11.699 13.9101 12.0183 13.7257 12.1464 13.4168L12.5471 12.4479C12.6219 12.2665 12.7656 12.1228 12.9471 12.0479L13.9159 11.6472C14.2247 11.5198 14.4092 11.1999 14.3655 10.8687L14.2337 9.86505C14.2047 9.64652 14.264 9.42579 14.3981 9.25172L15.0136 8.44952C15.2173 8.18432 15.2173 7.81545 15.0136 7.55105L14.3743 6.71845C14.2551 6.56291 14.2025 6.36663 14.2285 6.17255L14.3655 5.13111C14.4092 4.8 14.2247 4.48075 13.9159 4.35261L12.9471 3.95188C12.7656 3.87707 12.6219 3.73337 12.5471 3.55189L12.1464 2.58303C12.019 2.27415 11.699 2.08971 11.3679 2.13341L10.3265 2.27044C10.1325 2.29711 9.9362 2.24451 9.78141 2.126L8.94887 1.48676C8.68374 1.28306 8.31487 1.28306 8.05047 1.48676L7.21794 2.126C7.06239 2.24451 6.86611 2.29711 6.67205 2.27193L5.63065 2.13489C5.29957 2.09119 4.98034 2.27563 4.8522 2.58451L4.45223 3.55337C4.37669 3.73411 4.23299 3.87781 4.05227 3.95336L3.08346 4.35335C2.77459 4.48149 2.59017 4.80074 2.63387 5.13185L2.77089 6.1733C2.79607 6.36737 2.74349 6.56365 2.62498 6.71845L1.98577 7.55105C1.78209 7.81619 1.78209 8.18512 1.98577 8.44952L2.62498 9.28212C2.74423 9.43765 2.79681 9.63392 2.77089 9.82799L2.63387 10.8695C2.59017 11.2006 2.77459 11.5198 3.08346 11.648L4.05227 12.0487C4.23373 12.1235 4.37743 12.2672 4.45223 12.4487L4.85294 13.4175C4.98034 13.7265 5.30031 13.9109 5.63139 13.8672L6.63427 13.7346Z" fill="#68D4AB" stroke="#68D4AB" stroke-width="2" stroke-linecap="round" stroke-linejoin="round"/>
<path d="M6.5 8.00065L7.83333 9.33398L10.8333 6.33398" stroke="#2E35B9" stroke-width="2" stroke-linecap="round" stroke-linejoin="round"/>
</g>
<defs>
<clipPath id="clip0_955_5356">
<rect width="16" height="16" fill="white" transform="translate(0.5)"/>
</clipPath>
</defs>
</svg>
